<svg xmlns="http://www.w3.org/2000/svg" width="512" height="512"><g style="display:inline"><path d="M95.266 507.911C75 506.244 55.342 498.552 39.824 486.22c-5.013-3.984-14.06-13.113-18.108-18.271C11.08 454.396 4.914 440.3 1.745 422.307.817 417.039.708 403.39.497 266.14.25 105.34.367 97.05 3.047 84.036c4.107-19.928 13.58-36.74 29.122-51.681C47.963 17.172 65.4 8.527 88.468 4.44c5.245-.929 19.149-1.036 160.693-1.245 102.032-.15 158.082-.016 164.117.395 16.466 1.12 29.557 4.493 42.289 10.895 28.42 14.29 49.001 40.105 54.81 68.75 2.234 11.014 2.275 14.575 2.052 177.74-.242 177.284.114 162.277-4.18 176.21-6.56 21.278-22.222 41.394-42.46 54.54-14.273 9.27-30.421 14.626-48.916 16.225-8.907.77-312.222.733-321.607-.04m321.303-.542c14.224-1.236 27.306-4.79 38.92-10.574 29.193-14.537 49.574-41.17 55.137-72.05.966-5.363 1.04-17.497 1.04-168.327 0-182.71.382-167.477-4.563-182.4-9.661-29.153-30.884-51.104-60.96-63.051-5.055-2.008-17.205-5.098-24.409-6.208-6.325-.974-306.302-1.51-321.755-.575C83.36 5.19 71.105 8.328 57.787 14.99 29.014 29.379 9.3 54.99 3.317 85.749 2.64 89.229 1.84 96.947 1.53 102.987c-.785 15.317-.761 296.3.027 308.653 1.043 16.356 3.458 25.733 10.024 38.924 11.567 23.237 31.4 41.204 55.733 50.49 8.775 3.35 21.022 5.934 30.845 6.512 9.157.538 312.103.351 318.41-.196m-198.71-215.252c-10.094-23.578-23.084-43.153-39.427-59.416-9.883-9.834-17.066-15.493-24.925-19.637-6.769-3.569-17.231-7.064-22.456-7.502-4.032-.338-4.117-.314-5.732 1.605-1.638 1.947-1.638 1.948-1.638 12.23 0 5.657-.206 10.264-.456 10.239-1.176-.117-59.398-44.728-59.398-45.511 0-.512 12.709-9.159 29.696-20.205 16.333-10.62 29.8-19.31 29.927-19.31s.235 4.99.24 11.09c.005 7.648.244 11.555.768 12.59 1.207 2.386 4.394 4.154 8.216 4.558 25.853 2.734 45.27 12.65 66.666 34.041 8.543 8.541 14.707 16.138 19.96 24.6l2.82 4.541v31.766c0 17.993-.233 31.765-.537 31.765-.295 0-1.971-3.35-3.724-7.444" style="display:inline;fill:#f99434;stroke-width:1.72248"/><path d="M98.16 507.565c-9.824-.578-22.07-3.163-30.846-6.511-24.334-9.287-44.166-27.254-55.733-50.491-6.566-13.19-8.98-22.568-10.024-38.924-.788-12.354-.812-293.336-.027-308.653.31-6.04 1.11-13.758 1.786-17.236C9.3 54.99 29.014 29.38 57.787 14.989c13.318-6.66 25.573-9.8 42.192-10.805 15.453-.935 315.43-.399 321.755.575 7.204 1.11 19.354 4.2 24.408 6.208 30.077 11.947 51.3 33.898 60.96 63.051 4.946 14.923 4.565-.31 4.565 182.4 0 150.83-.075 162.964-1.041 168.327-3.442 19.104-12.414 36.507-26.258 50.932-17.69 18.432-41.094 29.372-67.799 31.692-6.307.547-309.253.734-318.41.196m187.574-29.753c1.167-.553 2.75-1.989 3.52-3.19l1.399-2.184.39-56.511c.422-61.38.34-59.87 4.043-74.305 2.38-9.275 7.62-24.723 12.449-36.69 15.72-38.96 38.924-69.594 60.702-80.135 2.736-1.324 5.432-2.408 5.993-2.408.917 0 1.019 1.132 1.019 11.313v11.313l2.359 2.36c2.065 2.065 2.712 2.359 5.189 2.359 4.706 0 .469 2.971 57.855-40.577 25.76-19.547 26.96-20.647 26.96-24.705 0-2.332-1.514-5.58-3.463-7.43-1.686-1.599-20-13.833-47.58-31.783a53490 53490 0 0 1-21.781-14.183c-6.509-4.242-7.93-4.925-10.743-5.158-2.642-.22-3.59-.022-5.117 1.066-3.749 2.67-3.959 3.715-3.757 18.71.1 7.435-.046 13.52-.326 13.522-.28 0-3.106.414-6.28.918-16.502 2.618-34.173 11.509-51.043 25.683-6.847 5.752-17.886 16.974-22.518 22.891l-3.308 4.225-.303-43.722c-.167-24.047-.204-44.2-.081-44.786.203-.973 1.358-1.064 13.672-1.075 16.427-.015 20.433-.507 23.413-2.876 2.482-1.973 4.924-6.296 4.924-8.717 0-4.153-1.608-6.136-34.906-43.055a41808 41808 0 0 1-24.498-27.186c-10.371-11.524-12.942-13.556-17.16-13.556-4.198 0-6.631 1.961-17.904 14.427-5.97 6.604-20.86 23.033-33.088 36.51-12.227 13.477-22.983 25.618-23.902 26.98-3.357 4.975-1.62 12.49 3.64 15.761 2.217 1.378 2.788 1.43 19.3 1.724l17.013.304.156 43.295c.086 23.812-.064 43.295-.334 43.295-.269 0-2.042-1.863-3.939-4.14-4.5-5.404-15.863-16.424-22.012-21.35-15.59-12.487-33.647-21.3-50.435-24.615l-6.684-1.32-.304-14.046c-.347-16.067-.473-16.48-5.693-18.653-2.816-1.173-2.851-1.173-5.71.046-2.79 1.19-69.62 44.748-75.854 49.44-1.703 1.282-3.58 3.35-4.17 4.595-1.267 2.67-1.03 6.53.547 8.94.578.88 12.17 10.013 25.76 20.293 13.592 10.28 30.52 23.136 37.619 28.57 7.099 5.433 13.716 10.296 14.705 10.808 3.826 1.978 8.484.776 11.077-2.859 1.333-1.869 1.427-2.615 1.617-12.836l.203-10.852 1.785.357c.981.197 3.762 1.282 6.178 2.413 16.293 7.622 35.683 28.924 50.42 55.393 8.853 15.899 21.205 48.137 24.434 63.765.81 3.925.938 12.99.938 66.433v61.888l1.507 2.042c3.296 4.468 1.734 4.262 32.43 4.267 24.397.003 27.8-.112 29.677-1.003" style="display:inline;fill:#f9673b;stroke-width:1.72248"/><path d="M290.798 274.313c.016-39.952-.675-35.375 7.046-46.664 8.313-12.153 16.217-21.12 25.979-29.47 18.969-16.228 33.768-23.143 53.45-24.975 12.058-1.122 11.952-.968 11.952-17.322 0-6.534.165-11.88.366-11.88.707 0 37.356 24.103 55.97 36.81 2.411 1.645 4.394 3.278 4.406 3.63.012.35-12.06 9.647-26.828 20.66-33.202 24.758-33.17 24.735-33.944 24.257-.425-.262-.497-3.341-.218-9.321.472-10.147-.014-12.046-3.455-13.471-2.573-1.066-8.463-.073-15.71 2.65-17.452 6.555-34.428 21.624-50.807 45.098-9.46 13.559-16.297 26.472-23.316 44.034-2.07 5.178-4.02 9.675-4.334 9.993-.355.36-.565-12.467-.557-34.029" style="display:inline;fill:#58aa6a;stroke-width:1.72248"/><path d="M235.734 464.749c-.135-.22-.257-78.834-.272-174.7-.017-115.277-.233-174.955-.638-176.228-1.208-3.8-1.958-3.957-20.692-4.313-9.309-.177-16.923-.486-16.92-.688.006-.366 34.61-39.02 50.51-56.422 4.658-5.096 8.716-9.266 9.018-9.266.707 0 58.592 64.297 58.845 65.363.153.646-3.187.837-17.217.988l-17.407.187-1.772 1.984-1.772 1.985v175.317c0 139.704-.155 175.372-.76 175.588-1.238.441-40.656.639-40.923.205" style="display:inline;fill:#0f9f97;stroke-width:1.72248"/><path d="M226.817 477.7c-.926-.61-2.361-2.028-3.19-3.152l-1.507-2.042v-61.888c0-53.444-.128-62.508-.939-66.433-3.228-15.628-15.58-47.866-24.433-63.765-14.737-26.47-34.127-47.771-50.42-55.393-2.416-1.13-5.197-2.216-6.178-2.413l-1.785-.357-.203 10.852c-.19 10.22-.284 10.967-1.617 12.836-2.593 3.635-7.25 4.837-11.077 2.859-.989-.512-7.606-5.375-14.705-10.809s-24.027-18.29-37.618-28.57-25.183-19.411-25.76-20.293c-1.579-2.408-1.815-6.27-.549-8.94.591-1.244 2.468-3.312 4.171-4.594 6.233-4.691 73.065-48.25 75.854-49.44 2.859-1.219 2.894-1.219 5.71-.046 5.22 2.173 5.346 2.586 5.693 18.653l.304 14.046 6.684 1.32c16.788 3.314 34.846 12.128 50.435 24.616 6.149 4.925 17.512 15.945 22.012 21.348 1.898 2.278 3.67 4.141 3.94 4.141.269 0 .42-19.483.333-43.295l-.156-43.295-17.014-.304c-16.511-.295-17.082-.346-19.298-1.724-5.262-3.271-6.998-10.786-3.64-15.76.918-1.363 11.674-13.504 23.902-26.98a40157 40157 0 0 0 33.087-36.511c11.273-12.466 13.706-14.426 17.904-14.426 4.218 0 6.789 2.03 17.16 13.555 5.472 6.08 16.496 18.314 24.498 27.186 33.298 36.919 34.906 38.902 34.906 43.055 0 2.421-2.442 6.744-4.923 8.717-2.98 2.369-6.987 2.86-23.414 2.876-12.313.01-13.468.102-13.672 1.075-.123.585-.086 20.739.08 44.786l.305 43.722 3.307-4.225c4.633-5.917 15.671-17.139 22.518-22.89 16.87-14.175 34.54-23.066 51.043-25.684 3.175-.504 6.001-.917 6.28-.918.28-.001.427-6.087.326-13.523-.202-14.994.01-16.04 3.757-18.709 1.528-1.088 2.475-1.285 5.117-1.066 2.813.233 4.234.916 10.743 5.158 4.126 2.689 13.927 9.071 21.781 14.183 27.58 17.95 45.894 30.184 47.58 31.783 1.95 1.85 3.463 5.098 3.463 7.43 0 4.058-1.2 5.158-26.96 24.705-45.293 34.372-50.494 38.257-52.77 39.422-1.262.646-3.5 1.155-5.085 1.155-2.477 0-3.124-.294-5.19-2.36l-2.358-2.359v-11.313c0-10.181-.102-11.313-1.02-11.313-.56 0-3.256 1.084-5.992 2.408-21.778 10.541-44.983 41.174-60.702 80.136-4.828 11.966-10.07 27.414-12.449 36.689-3.703 14.436-3.62 12.925-4.044 74.305l-.39 56.511-1.398 2.184c-2.712 4.234-2.417 4.197-33.197 4.193-25.662-.003-27.672-.08-29.24-1.114zm60.06-2.072c1.272-1.169 2.336-2.842 2.607-4.101.253-1.17.531-26.874.62-57.12.18-61.38-.01-58.304 4.69-75.498 11.158-40.815 30.767-77.9 52.774-99.81 7.502-7.468 13.199-11.73 20.456-15.306 5.431-2.676 7.6-3.112 8.05-1.62.188.62.284 5.825.214 11.565-.12 9.754-.044 10.55 1.145 12.153.7.944 2.303 2.06 3.56 2.481 4.65 1.557 1.727 3.522 56.021-37.668 14.419-10.939 26.929-20.735 27.8-21.77 2.738-3.255 1.979-8.006-1.857-11.615-.95-.893-13.347-9.246-27.55-18.563-52.9-34.699-50.804-33.503-55.064-31.378-4.283 2.136-4.623 3.604-4.154 17.905.281 8.576.203 12.91-.248 13.752-.495.926-1.525 1.33-4.17 1.633-10.16 1.17-23.46 5.81-33.811 11.797-14.782 8.55-31.637 23.352-42.506 37.33-2.02 2.598-3.965 4.626-4.323 4.506-.454-.15-.65-14.03-.65-46.043V122.43l17.06-.303 17.06-.304 2.525-1.672c2.807-1.858 4.98-5.502 4.98-8.35 0-4.305.985-3.076-30.68-38.267-10.364-11.52-23.032-25.602-28.15-31.294s-10.313-10.964-11.545-11.714c-2.461-1.498-6.605-1.822-8.812-.688-.73.375-2.112 1.4-3.071 2.278-2.097 1.92-63.618 69.683-66.097 72.803-3.553 4.47-3.58 9.453-.077 13.617 2.872 3.414 3.957 3.59 21.999 3.59 15.597 0 16.435.059 17.034 1.176.68 1.27.93 86.047.26 87.796-.61 1.588-1.645 1.075-3.885-1.924-3.033-4.061-17.079-18.06-22.596-22.52-16.457-13.306-35.345-22.596-52.023-25.588-3.51-.629-6.6-1.507-6.903-1.962-.303-.452-.476-6.701-.386-13.887.151-12.03.07-13.22-1.017-15.03-1.518-2.525-4.676-4.048-7.456-3.597-1.337.217-8.49 4.52-19.516 11.738-44.23 28.957-58.263 38.419-60.094 40.518-1.655 1.898-1.975 2.75-1.975 5.261 0 3.736 1.303 5.339 9.226 11.353 3.114 2.363 12.635 9.575 21.157 16.025a16955 16955 0 0 1 30.514 23.163c8.26 6.288 15.917 11.98 17.014 12.65 3.594 2.19 8.68 1.235 10.857-2.04.633-.954.941-4.266 1.165-12.532.353-13.061.065-12.62 6.566-10.038 15.395 6.118 33.366 23.745 48.123 47.2 10.732 17.06 22.378 44.544 29.566 69.778l1.645 5.773.195 62.284c.108 34.257.195 62.932.194 63.723-.001.863.942 2.383 2.357 3.798l2.359 2.36h56.672zM220.698 300.69c-.51-.788-1.485-2.86-2.167-4.604-8.443-21.586-23.343-45.055-38.638-60.86-14.608-15.094-28.017-23.79-42.32-27.442-6.656-1.699-10.002-1.71-11.672-.038-1.25 1.253-1.3 1.747-1.104 10.976.216 10.157-.066 12.475-1.453 11.943-.998-.383-58.606-43.606-60.071-45.07-1.99-1.99-3.835-.62 33.219-24.674 21.417-13.902 27.416-17.536 27.842-16.864.298.471.546 5.947.552 12.168.012 14.784.137 14.962 11.25 16.032 29.29 2.822 61.145 24.584 82.245 56.186l4.65 6.964v32.655c0 33.817-.156 35.993-2.333 32.628m1.421-32.894V236.03l-2.82-4.542c-5.253-8.46-11.417-16.058-19.96-24.599-21.395-21.392-40.813-31.307-66.666-34.04-3.822-.405-7.009-2.173-8.216-4.559-.524-1.035-.762-4.942-.769-12.59-.005-6.1-.112-11.09-.239-11.09s-13.594 8.69-29.927 19.31c-16.987 11.046-29.696 19.693-29.696 20.204 0 .784 58.222 45.395 59.398 45.512.25.025.456-4.582.456-10.238 0-10.283 0-10.284 1.638-12.231 1.615-1.92 1.7-1.943 5.732-1.605 5.225.438 15.687 3.933 22.456 7.502 7.86 4.144 15.042 9.803 24.925 19.637 16.343 16.263 29.333 35.838 39.427 59.416 1.753 4.094 3.429 7.444 3.724 7.444.304 0 .537-13.772.537-31.765" style="display:inline;fill:#a05939;stroke-width:1.72248"/><path d="M234.625 464.57c-.184-.685-.339-79.942-.343-176.126l-.01-174.88-1.49-1.491-1.492-1.492h-17.365c-14.584 0-17.419-.14-17.702-.878-.216-.563 6.18-8.142 17.793-21.088 28.439-31.7 41.77-46.286 42.53-46.533.385-.125 7.887 7.785 16.671 17.577 21.127 23.552 29.95 33.34 37.468 41.565 3.426 3.748 6.229 7.218 6.229 7.712 0 .763-2.643.96-17.47 1.307-10.663.249-18 .67-18.828 1.078-.746.369-1.547 1.242-1.78 1.94-.231.699-.441 80.067-.465 176.375s-.18 175.234-.347 175.39c-.167.157-9.925.4-21.684.539-21.155.25-21.384.24-21.715-.994zm42.032-.026c.605-.216.76-35.884.76-175.588V113.639l1.772-1.985 1.772-1.984 17.407-.187c14.03-.15 17.37-.342 17.217-.988-.253-1.066-58.138-65.363-58.845-65.363-.302 0-4.36 4.17-9.017 9.266-15.901 17.402-50.506 56.056-50.511 56.422-.003.202 7.611.51 16.92.688 18.734.356 19.484.512 20.692 4.313.405 1.273.62 60.95.638 176.228.014 95.866.137 174.48.272 174.7.267.434 39.685.236 40.923-.205m13.832-154.717c-.187-.488-.266-16.875-.174-36.415l.166-35.528 2.404-3.95c9.455-15.535 21.556-29.29 35.84-40.74 15.92-12.762 30.617-19.067 48.347-20.74 3.843-.364 7.751-1.048 8.685-1.52 2.744-1.392 3.017-3.038 2.557-15.417-.344-9.268-.268-11.396.427-11.973.959-.796 0-1.399 38.31 24.04 13.285 8.82 24.154 16.356 24.154 16.746 0 1.053-60.368 46.085-61.927 46.195-.842.059-.986-1.3-1.13-10.637-.155-9.969-.253-10.782-1.434-11.849-4.066-3.671-21.204 2.125-34.773 11.76-6.307 4.48-17.494 15.594-24.32 24.162-6.344 7.965-14.119 19.51-18.927 28.11-3.857 6.897-11.149 22.968-14.266 31.44-2.195 5.968-3.358 7.831-3.939 6.316m5.2-11.478c7.019-17.562 13.857-30.476 23.316-44.034 16.379-23.474 33.355-38.544 50.807-45.099 7.247-2.722 13.137-3.715 15.71-2.65 3.44 1.426 3.927 3.325 3.455 13.472-.279 5.98-.207 9.058.218 9.32.774.48.742.502 33.944-24.257 14.768-11.012 26.84-20.309 26.828-20.66s-1.995-1.984-4.405-3.63c-18.615-12.707-55.264-36.809-55.97-36.809-.202 0-.367 5.346-.367 11.88 0 16.354.106 16.2-11.951 17.322-19.683 1.832-34.482 8.747-53.451 24.974-9.762 8.35-17.666 17.318-25.979 29.471-7.721 11.289-7.03 6.711-7.046 46.664-.009 21.561.202 34.388.557 34.029.314-.318 2.264-4.815 4.334-9.993m-72.865-3.041c0-.836.138-1.178.306-.76.169.418.169 1.101 0 1.52-.168.417-.306.075-.306-.76" style="display:inline;fill:#155e5c;stroke-width:1.72248"/><path d="M225.695 475.244c-1.415-1.415-2.359-2.935-2.357-3.798 0-.79-.086-29.466-.194-63.723l-.195-62.284-1.645-5.773c-7.205-25.294-18.808-52.69-29.466-69.576-14.665-23.232-32.477-40.9-47.47-47.082-2.446-1.009-5.094-1.834-5.884-1.834h-1.435v10.694c0 11.825-.444 13.75-3.598 15.614-2.354 1.39-5.98 1.305-8.447-.199-1.11-.676-8.219-5.957-15.799-11.734-7.579-5.777-21.3-16.198-30.49-23.156L56.341 195.45c-7.918-5.998-9.226-7.606-9.226-11.344 0-2.51.32-3.363 1.975-5.26 1.83-2.1 15.863-11.562 60.094-40.52 11.026-7.218 18.18-11.52 19.516-11.737 2.78-.451 5.938 1.072 7.456 3.598 1.092 1.816 1.166 2.968.984 15.207-.213 14.276-.074 15.006 2.869 15.023 2.946.018 12.477 2.317 18.914 4.563 12.262 4.279 26.79 12.763 38.282 22.354 6.156 5.138 18.887 17.85 21.876 21.845 2.24 2.994 3.276 3.505 3.885 1.918.67-1.749.42-86.525-.26-87.796-.599-1.117-1.437-1.175-17.034-1.175-12.48 0-16.88-.199-18.389-.83-4.329-1.808-7.229-7.658-5.935-11.974.85-2.84 2.17-4.473 15.195-18.794 5.926-6.517 17.7-19.506 26.163-28.864 22.684-25.084 27.427-30.134 29.47-31.38 2.573-1.569 6.755-1.464 9.554.241 1.232.75 6.428 6.021 11.546 11.713s17.68 19.652 27.916 31.022c31.572 35.07 30.912 34.248 30.912 38.54 0 2.848-2.172 6.492-4.98 8.35l-2.524 1.672-17.06.304-17.06.303-.156 46.03c-.129 38.222-.017 46.03.662 46.03.449 0 2.464-2.12 4.478-4.71 7.373-9.481 18.598-20.386 29.652-28.805 13.572-10.337 29.148-17.406 43.447-19.72 3.51-.568 6.755-1.325 7.213-1.682.682-.532.758-3.01.42-13.73-.38-12.122-.327-13.239.736-15.21.649-1.203 2.129-2.616 3.41-3.255 4.252-2.122 2.327-3.216 54.152 30.79 26.687 17.511 29.602 19.61 31 22.312 1.432 2.77 1.155 6.271-.67 8.44-.864 1.027-13.373 10.823-27.798 21.77-43.167 32.757-49.209 37.193-51.535 37.836-2.895.8-6.344-.325-8.053-2.627-1.178-1.588-1.268-2.508-1.273-13.065l-.005-11.356-1.88.079c-2.343.099-8.958 3.325-14.88 7.257-6.086 4.042-17.99 16.023-24.405 24.566-16.961 22.582-31.688 54.06-40.51 86.59-4.351 16.044-4.203 13.518-4.381 74.438-.089 30.245-.368 55.95-.62 57.119-.271 1.26-1.335 2.932-2.608 4.102l-2.15 1.974h-56.672zm52.33-10.218c.166-.156.323-79.082.347-175.39s.233-175.676.465-176.375c.233-.698 1.033-1.571 1.78-1.94.828-.409 8.165-.83 18.827-1.078 14.827-.346 17.47-.544 17.47-1.307 0-.494-2.803-3.964-6.228-7.712-7.518-8.225-16.341-18.013-37.468-41.565-8.785-9.792-16.287-17.702-16.672-17.577-.76.247-14.091 14.833-42.53 46.533-11.613 12.946-18.008 20.525-17.792 21.088.283.738 3.118.878 17.701.878h17.365l1.492 1.492 1.491 1.491.01 174.88c.004 96.184.158 175.44.343 176.127.331 1.234.56 1.244 21.715.994 11.759-.14 21.517-.382 21.684-.539zm16.403-161.515c3.117-8.472 10.409-24.543 14.266-31.44 4.808-8.6 12.583-20.145 18.927-28.11 6.826-8.568 18.013-19.683 24.32-24.161 13.57-9.636 30.707-15.432 34.773-11.76 1.18 1.066 1.28 1.88 1.434 11.849.144 9.337.288 10.695 1.13 10.636 1.559-.11 61.927-45.142 61.927-46.195 0-.39-10.87-7.925-24.154-16.746-38.31-25.439-37.351-24.836-38.31-24.04-.695.577-.771 2.705-.427 11.973.46 12.38.188 14.025-2.557 15.416-.934.473-4.842 1.157-8.685 1.52-17.73 1.674-32.426 7.979-48.347 20.74-14.284 11.45-26.385 25.206-35.84 40.742l-2.404 3.95-.166 35.527c-.092 19.54-.014 35.927.174 36.415.582 1.516 1.744-.348 3.94-6.316m-71.488-5.62c.213-2.257.389-17.136.391-33.067l.005-28.964-4.753-7.193c-13.057-19.761-32.592-37.674-51.362-47.097-11.007-5.527-18.583-7.851-30.322-9.306-7.394-.916-10.306-1.92-11.378-3.922-.366-.685-.625-5.977-.625-12.774 0-9.065-.176-11.672-.804-11.913-.443-.17-11.175 6.427-23.85 14.658-35.258 22.896-37.935 24.718-37.935 25.834 0 1.401 60.537 46.967 61.77 46.494.778-.299.888-1.949.73-10.939-.169-9.661-.085-10.697.958-11.85 1.566-1.73 5.267-1.65 12.434.27 13.067 3.501 24.916 10.828 38.22 23.633 7.902 7.607 14.757 16.081 22.972 28.4 8.258 12.385 13.678 22.834 20.52 39.558 1.475 3.607 2.578 2.943 3.028-1.823z" style="display:inline;fill:#0b323d;stroke-width:1.72248"/></g></svg>
